<svg width="24" height="24" viewBox="0 0 24 24" fill="none" xmlns="http://www.w3.org/2000/svg">
<path d="M4.33568 4.33568C4.44182 4.22928 4.56791 4.14485 4.70673 4.08725C4.84554 4.02965 4.99436 4 5.14465 4C5.29494 4 5.44376 4.02965 5.58257 4.08725C5.72139 4.14485 5.84748 4.22928 5.95362 4.33568L12.0003 10.3847L18.047 4.33568C18.1532 4.22945 18.2793 4.14518 18.4181 4.08768C18.5569 4.03019 18.7057 4.0006 18.8559 4.0006C19.0062 4.0006 19.155 4.03019 19.2938 4.08768C19.4326 4.14518 19.5587 4.22945 19.6649 4.33568C19.7712 4.44192 19.8554 4.56804 19.9129 4.70684C19.9704 4.84564 20 4.99441 20 5.14465C20 5.29489 19.9704 5.44366 19.9129 5.58246C19.8554 5.72126 19.7712 5.84738 19.6649 5.95362L13.6159 12.0003L19.6649 18.047C19.7712 18.1532 19.8554 18.2793 19.9129 18.4181C19.9704 18.5569 20 18.7057 20 18.8559C20 19.0062 19.9704 19.155 19.9129 19.2938C19.8554 19.4326 19.7712 19.5587 19.6649 19.6649C19.5587 19.7712 19.4326 19.8554 19.2938 19.9129C19.155 19.9704 19.0062 20 18.8559 20C18.7057 20 18.5569 19.9704 18.4181 19.9129C18.2793 19.8554 18.1532 19.7712 18.047 19.6649L12.0003 13.6159L5.95362 19.6649C5.84738 19.7712 5.72126 19.8554 5.58246 19.9129C5.44366 19.9704 5.29489 20 5.14465 20C4.99441 20 4.84564 19.9704 4.70684 19.9129C4.56804 19.8554 4.44192 19.7712 4.33568 19.6649C4.22945 19.5587 4.14518 19.4326 4.08768 19.2938C4.03019 19.155 4.0006 19.0062 4.0006 18.8559C4.0006 18.7057 4.03019 18.5569 4.08768 18.4181C4.14518 18.2793 4.22945 18.1532 4.33568 18.047L10.3847 12.0003L4.33568 5.95362C4.22928 5.84748 4.14485 5.72139 4.08725 5.58257C4.02965 5.44376 4 5.29494 4 5.14465C4 4.99436 4.02965 4.84554 4.08725 4.70673C4.14485 4.56791 4.22928 4.44182 4.33568 4.33568Z" fill="black"/>
</svg>
