<svg width="24" height="25" viewBox="0 0 24 25" fill="none" xmlns="http://www.w3.org/2000/svg">
<path fill-rule="evenodd" clip-rule="evenodd" d="M8.27629 7.05194C8.27629 7.65719 7.80566 8.14656 7.22591 8.14656C6.64466 8.14656 6.17554 7.65719 6.17554 7.05194C6.17554 6.44744 6.64466 5.95581 7.22591 5.95581C7.80604 5.95581 8.27629 6.44706 8.27629 7.05194Z" fill="#C8832E"/>
<path fill-rule="evenodd" clip-rule="evenodd" d="M5.75732 11.4537C5.75732 11.4537 8.21995 9.92673 6.96295 6.83936C6.96295 6.83936 11.4191 13.2556 12.6772 10.5256C13.9349 7.79523 12.3101 13.8575 12.2055 14.0206C12.1008 14.1852 10.0038 15.8236 10.0038 15.8236H6.70157L5.75732 11.4537Z" fill="#C8832E"/>
<path d="M16.7756 8.14653C17.3563 8.14653 17.8271 7.65644 17.8271 7.0519C17.8271 6.44736 17.3563 5.95728 16.7756 5.95728C16.1949 5.95728 15.7241 6.44736 15.7241 7.0519C15.7241 7.65644 16.1949 8.14653 16.7756 8.14653Z" fill="#C8832E"/>
<path fill-rule="evenodd" clip-rule="evenodd" d="M18.2427 11.4537C18.2427 11.4537 15.7786 9.92673 17.0371 6.83936C17.0371 6.83936 12.5806 13.2556 11.3221 10.5256C10.0647 7.79523 11.6899 13.8575 11.7957 14.0206C11.8984 14.1852 13.9958 15.8236 13.9958 15.8236H17.2996L18.2427 11.4537Z" fill="#C8832E"/>
<path fill-rule="evenodd" clip-rule="evenodd" d="M22.5266 5.96223C21.7219 5.96223 21.0701 6.67735 21.0701 7.56085C21.0701 7.79635 21.1189 8.01985 21.2025 8.22085C18.9487 9.5161 16.8544 11.5164 16.8544 11.5164C14.9497 13.715 13.4074 10.1311 12.5662 7.38385C13.5907 7.09473 14.3501 6.07585 14.3501 4.8601C14.3501 3.41898 13.2866 2.25085 11.9734 2.25085C10.6605 2.25085 9.59661 3.41898 9.59661 4.8601C9.59661 6.09498 10.3785 7.1251 11.4289 7.3981C10.5859 10.1457 9.04611 13.7142 7.14636 11.5182C7.14636 11.5182 5.05199 9.51798 2.79599 8.22273C2.88364 8.01372 2.9289 7.78938 2.92911 7.56273C2.92911 6.67923 2.27661 5.9641 1.47261 5.9641C0.668238 5.9641 0.0161133 6.67923 0.0161133 7.56273C0.0161133 8.44623 0.668613 9.1621 1.47261 9.1621C1.74261 9.1621 1.99124 9.07623 2.20874 8.9356C3.05024 10.6902 4.23824 13.8444 3.61799 16.7371C3.61799 16.7371 4.53111 20.3952 11.9996 20.2719C19.4677 20.3952 20.3797 16.7371 20.3797 16.7371C19.7602 13.8455 20.9479 10.6921 21.7901 8.9356C22.0076 9.07623 22.2562 9.1621 22.5262 9.1621C23.3306 9.1621 23.9831 8.44623 23.9831 7.56273C23.9831 6.67923 23.331 5.96373 22.5266 5.96373" fill="#F79420"/>
<path fill-rule="evenodd" clip-rule="evenodd" d="M12 21.1081C6.03266 21.2068 4.25178 18.8923 3.77741 17.9574C3.75811 18.3794 3.70494 18.7991 3.61841 19.2125C3.61841 19.2125 4.53153 22.8699 12 22.748C19.4682 22.8699 20.3802 19.2125 20.3802 19.2125C20.2939 18.7991 20.2409 18.3793 20.2219 17.9574C19.7475 18.8923 17.9682 21.2068 12 21.1081Z" fill="#C8832E"/>
<path fill-rule="evenodd" clip-rule="evenodd" d="M11.6625 20.2302C12.7343 14.8433 13.1663 9.34395 11.5609 3.9927C11.3779 3.3837 11.3299 2.81595 11.3828 2.29358C10.3553 2.58195 9.59588 3.60083 9.59588 4.81883C9.59588 6.0537 10.3778 7.08758 11.4281 7.35608C10.5851 10.1045 9.04538 13.6737 7.14563 11.477C7.14563 11.477 5.05126 9.4767 2.79526 8.18108C2.88298 7.97196 2.92823 7.74748 2.92838 7.5207C2.92838 6.6387 2.27588 5.92283 1.47188 5.92283C0.667506 5.92283 0.0153809 6.6387 0.0153809 7.5207C0.0153809 8.40495 0.667881 9.12083 1.47188 9.12083C1.74188 9.12083 1.99051 9.0342 2.20801 8.89433C3.04951 10.6478 4.23751 13.8031 3.61726 16.6947C3.61726 16.6947 4.50788 20.2373 11.6625 20.2313" fill="#F19D43"/>
<path d="M11.9999 15.5975L12.6344 16.7825L14.0508 16.9715L13.0244 17.8925L13.2674 19.1942L11.9999 18.5788L10.7339 19.1942L10.9762 17.8925L9.95093 16.9715L11.3662 16.7825L11.9999 15.5975Z" fill="#3E3E3E" style="mix-blend-mode:multiply"/>
<path d="M11.9767 16.2208C11.9685 16.0203 11.9806 15.8196 12.0127 15.6215L12.0011 15.5975L11.3669 16.7818L9.95093 16.9715L10.9747 17.8918L10.7336 19.1942L12.0011 18.5799L13.2667 19.1942L13.1647 18.6414C12.4421 18.0118 12.0123 17.1377 11.9767 16.2208ZM16.9537 16.2407L17.3437 16.9655L18.2107 17.0825L17.5841 17.6462L17.7299 18.4453L16.9537 18.0703L16.1774 18.4453L16.3259 17.6462L15.6982 17.0825L16.5674 16.9655L16.9537 16.2407Z" fill="#3E3E3E" style="mix-blend-mode:multiply"/>
<path d="M16.9387 16.622C16.934 16.4992 16.9417 16.3762 16.9616 16.2549L16.9541 16.2402L16.5659 16.9655L15.6978 17.0821L16.3256 17.6461L16.1782 18.4452L16.9541 18.0702L17.7299 18.4452L17.6677 18.1062C17.2248 17.7196 16.9612 17.1826 16.9387 16.622ZM7.01395 16.2406L7.40132 16.9655L8.2687 17.0825L7.64132 17.6461L7.78982 18.4452L7.01395 18.0702L6.2377 18.4452L6.3862 17.6461L5.75732 17.0825L6.6247 16.9655L7.01395 16.2406Z" fill="#3E3E3E" style="mix-blend-mode:multiply"/>
<path d="M6.9982 16.622C6.9921 16.4991 7.00002 16.3759 7.02182 16.2549L7.01395 16.2402L6.6247 16.9655L5.75732 17.0821L6.3847 17.6461L6.23732 18.4452L7.01357 18.0702L7.78945 18.4452L7.72645 18.1062C7.28357 17.7196 7.02032 17.1826 6.9982 16.622Z" fill="#3E3E3E" style="mix-blend-mode:multiply"/>
</svg>
