<svg width="30" height="30" viewBox="0 0 30 30" fill="none" xmlns="http://www.w3.org/2000/svg">
<path d="M15.001 -0.000366211C10.097 -0.000366211 6.31501 1.65363 3.76501 4.42263C1.22801 7.17763 0.00201416 10.9376 0.00201416 14.9986C0.00201416 17.7686 0.572014 20.3986 1.74001 22.6646C2.07799 21.9924 2.55042 21.3968 3.12801 20.9146C2.38301 19.1596 2.00201 17.1536 2.00201 14.9996C2.00201 11.3296 3.10801 8.08963 5.23701 5.77863C7.35201 3.47963 10.57 1.99963 15.001 1.99963C19.431 1.99963 22.649 3.47963 24.765 5.77763C26.894 8.08863 28 11.3276 28 14.9976C28 18.6686 26.894 21.9076 24.765 24.2196C22.649 26.5176 19.432 27.9976 15.001 27.9976C14.685 27.9976 14.375 27.9896 14.071 27.9746C14.0182 28.0233 13.9628 28.069 13.905 28.1116C13.9986 28.4185 14.0251 28.7419 13.9827 29.0599C13.9402 29.3779 13.8298 29.6831 13.659 29.9546C14.096 29.9826 14.544 29.9976 15.001 29.9976C19.905 29.9976 23.687 28.3436 26.236 25.5746C28.773 22.8196 30 19.0596 30 14.9986C30 10.9376 28.773 7.17763 26.236 4.42263C23.686 1.65363 19.905 -0.000366211 15.002 -0.000366211H15.001Z" fill="black"/>
<path d="M12.391 29.8296C12.5834 29.7173 12.7418 29.5551 12.8494 29.3602C12.9571 29.1652 13.0101 28.9448 13.0027 28.7222C12.9953 28.4996 12.9279 28.2831 12.8075 28.0957C12.6872 27.9083 12.5184 27.7569 12.319 27.6576L12.002 27.4996H12.722C12.9451 27.4996 13.1617 27.4249 13.3375 27.2876C13.5132 27.1502 13.638 26.9581 13.692 26.7416L13.759 26.4696C13.7879 26.3546 13.7902 26.2344 13.7656 26.1183C13.7411 26.0022 13.6904 25.8933 13.6174 25.7998C13.5444 25.7062 13.451 25.6306 13.3444 25.5786C13.2378 25.5266 13.1207 25.4996 13.002 25.4996L13.332 25.3346C13.5332 25.2336 13.7024 25.0787 13.8206 24.8871C13.9388 24.6955 14.0014 24.4748 14.0014 24.2496C14.0014 24.0245 13.9388 23.8038 13.8206 23.6122C13.7024 23.4206 13.5332 23.2656 13.332 23.1646L13.002 22.9996H14.752C15.0835 22.9996 15.4015 22.8679 15.6359 22.6335C15.8703 22.3991 16.002 22.0812 16.002 21.7496C16.002 21.4181 15.8703 21.1002 15.6359 20.8657C15.4015 20.6313 15.0835 20.4996 14.752 20.4996H9.00201V17.4396C9.00201 17.0577 8.8503 16.6915 8.58025 16.4214C8.31019 16.1513 7.94392 15.9996 7.56201 15.9996C6.72201 15.9996 6.05701 16.7176 6.04501 17.5586C6.02501 18.9196 5.83701 20.7216 5.00201 20.9996C2.00201 21.9996 1.00201 26.4996 3.50201 28.4996C5.39201 30.0126 7.28301 30.0056 8.75201 29.9996H11.766C11.994 29.9996 12.207 29.9376 12.391 29.8296ZM7.14801 5.14563C7.54501 4.74963 8.63201 3.99963 10.002 3.99963C11.372 3.99963 12.459 4.74963 12.856 5.14563C12.9499 5.23952 13.0026 5.36686 13.0026 5.49963C13.0026 5.63241 12.9499 5.75975 12.856 5.85363C12.7621 5.94752 12.6348 6.00027 12.502 6.00027C12.3692 6.00027 12.2419 5.94752 12.148 5.85363C11.878 5.58363 11.032 4.99963 10.002 4.99963C8.97201 4.99963 8.12501 5.58363 7.85601 5.85363C7.80952 5.90012 7.75434 5.937 7.6936 5.96216C7.63286 5.98732 7.56776 6.00027 7.50201 6.00027C7.43627 6.00027 7.37117 5.98732 7.31043 5.96216C7.24969 5.937 7.1945 5.90012 7.14801 5.85363C7.10152 5.80715 7.06465 5.75196 7.03949 5.69122C7.01433 5.63048 7.00138 5.56538 7.00138 5.49963C7.00138 5.43389 7.01433 5.36879 7.03949 5.30805C7.06465 5.24731 7.10152 5.19212 7.14801 5.14563ZM17.182 7.11563C17.652 6.72363 18.922 5.99963 20.502 5.99963C22.082 5.99963 23.352 6.72363 23.822 7.11563C23.9203 7.20158 23.981 7.32254 23.9912 7.45266C24.0015 7.58279 23.9605 7.71177 23.8769 7.81204C23.7933 7.91232 23.6739 7.97594 23.544 7.98932C23.4142 8.0027 23.2843 7.96477 23.182 7.88363C22.852 7.60963 21.802 6.99963 20.502 6.99963C19.202 6.99963 18.152 7.60963 17.822 7.88363C17.7198 7.96477 17.5898 8.0027 17.46 7.98932C17.3301 7.97594 17.2107 7.91232 17.1271 7.81204C17.0436 7.71177 17.0025 7.58279 17.0128 7.45266C17.023 7.32254 17.0838 7.20158 17.182 7.11563ZM9.00201 13.4996C9.79766 13.4996 10.5607 13.1836 11.1233 12.621C11.6859 12.0583 12.002 11.2953 12.002 10.4996C12.002 9.70398 11.6859 8.94092 11.1233 8.37831C10.5607 7.8157 9.79766 7.49963 9.00201 7.49963C8.20636 7.49963 7.4433 7.8157 6.88069 8.37831C6.31808 8.94092 6.00201 9.70398 6.00201 10.4996C6.00201 11.2953 6.31808 12.0583 6.88069 12.621C7.4433 13.1836 8.20636 13.4996 9.00201 13.4996Z" fill="black"/>
<path d="M23.002 10.4996C23.002 11.2953 22.6859 12.0583 22.1233 12.621C21.5607 13.1836 20.7976 13.4996 20.002 13.4996C19.2063 13.4996 18.4433 13.1836 17.8807 12.621C17.3181 12.0583 17.002 11.2953 17.002 10.4996C17.002 9.70398 17.3181 8.94092 17.8807 8.37831C18.4433 7.8157 19.2063 7.49963 20.002 7.49963C20.7976 7.49963 21.5607 7.8157 22.1233 8.37831C22.6859 8.94092 23.002 9.70398 23.002 10.4996ZM12.709 18.7066C13.0198 18.4077 13.3969 18.1865 13.8095 18.0612C14.2221 17.9359 14.6585 17.91 15.083 17.9856C16.304 18.1936 16.814 18.8156 17.095 19.4206C17.2084 19.6584 17.411 19.8418 17.6588 19.931C17.9067 20.0202 18.1797 20.0081 18.4186 19.8972C18.6575 19.7863 18.843 19.5856 18.9349 19.3387C19.0267 19.0918 19.0174 18.8187 18.909 18.5786C18.394 17.4706 17.383 16.3486 15.421 16.0136C14.6811 15.884 13.921 15.9325 13.2035 16.1549C12.4861 16.3773 11.8319 16.7673 11.295 17.2926C11.1128 17.4812 11.012 17.7338 11.0143 17.996C11.0166 18.2582 11.1218 18.509 11.3072 18.6945C11.4926 18.8799 11.7434 18.985 12.0056 18.9873C12.2678 18.9896 12.5204 18.8888 12.709 18.7066Z" fill="black"/>
</svg>
